<svg width="1600" height="203" viewBox="0 0 1600 203" fill="none" xmlns="http://www.w3.org/2000/svg">
<path fill-rule="evenodd" clip-rule="evenodd" d="M0 58.9331L66.6667 76.9415C133.333 94.9498 266.667 130.967 400 148.975C533.333 166.983 666.667 166.983 800 130.967C933.333 94.9498 1066.67 22.9164 1200 4.90804C1333.33 -13.1003 1466.67 22.9164 1533.33 40.9248L1600 58.9331V203H1533.33C1466.67 203 1333.33 203 1200 203C1066.67 203 933.333 203 800 203C666.667 203 533.333 203 400 203C266.667 203 133.333 203 66.6667 203H0V58.9331Z" fill="white"/>
</svg>
